<?xml version="1.0" encoding="iso-8859-1"?>
<!-- Uploaded to: SVG Repo, www.svgrepo.com, Generator: SVG Repo Mixer Tools -->
<svg fill="#000000" height="800px" width="800px" version="1.1" id="Layer_1" xmlns="http://www.w3.org/2000/svg" xmlns:xlink="http://www.w3.org/1999/xlink" 
	 viewBox="0 0 512.001 512.001" xml:space="preserve">
<g>
	<g>
		<path d="M134.674,68.637v39.118c0,12.483-10.155,22.638-22.638,22.638c-12.482,0-22.638-10.155-22.638-22.638V68.637H73.824
			v39.118c0.001,21.071,17.143,38.213,38.212,38.213c21.071,0,38.212-17.142,38.212-38.212V68.637H134.674z"/>
	</g>
</g>
<g>
	<g>
		<path d="M89.4,43.464v-9.598c0-10.085,8.205-18.291,18.29-18.291h8.693c10.085,0,18.291,8.206,18.291,18.291h15.575
			C150.25,15.192,135.057,0,116.383,0h-8.693C89.017,0,73.825,15.192,73.825,33.866v25.173H194.62V43.464H89.4z"/>
	</g>
</g>
<g>
	<g>
		<path d="M72.626,399.835l0.248,112.159l15.575-0.034l-0.118-53.721c15.466-3.125,27.147-16.82,27.147-33.194H99.903
			c0,7.725-4.822,14.333-11.608,17.01l-0.059-26.638l46.435,0.02l-0.045,96.534l15.575,0.007l0.045-96.535l10.04,0.004l0.006-15.575
			L72.626,399.835z"/>
	</g>
</g>
<g>
	<g>
		<path d="M438.307,41.624c0.114-10.291-3.807-19.988-11.045-27.306c-7.236-7.317-16.888-11.347-27.178-11.347
			c-21.077,0-38.225,17.148-38.225,38.225v66.56c0,21.07,17.143,38.212,38.212,38.212c21.071,0,38.212-17.142,38.212-38.212v-0.02
			C438.283,107.214,438.154,55.359,438.307,41.624z M422.709,107.761c-0.002,12.481-10.157,22.632-22.638,22.632
			c-12.482,0-22.638-10.155-22.638-22.638V41.195h0c0-12.489,10.161-22.65,22.65-22.65c6.097,0,11.815,2.388,16.103,6.724
			c4.288,4.337,6.613,10.083,6.546,16.181C422.58,55.21,422.706,106.645,422.709,107.761z"/>
	</g>
</g>
<g>
	<g>
		<path d="M351.844,336.946v55.522h87.203l-0.789-235.996h-7.761c-42.64,0-77.33,34.69-77.33,77.33v34.771h15.575v-34.771
			c0-31.425,23.592-57.443,53.995-61.27l0.472,141.126h-88.243v-24.92h71.644v-71.644h-15.575v56.069l-114.932,0.293v-88.829H173.6
			v88.536h-52.528v-56.069h-15.575v71.644h71.644v24.92H88.901l0.472-141.126c30.403,3.827,53.995,29.846,53.995,61.27v34.771
			h15.575v-34.771c0-42.64-34.69-77.33-77.33-77.33h-7.761l-0.789,235.996h87.202v-55.522H144.69v39.947H88.689l0.16-47.661h103.868
			v-40.189h36.436c-3.351,11.094-13.666,19.197-25.839,19.197v15.575c21.474,0,39.272-15.988,42.143-36.684h21.197
			c2.872,20.695,20.671,36.684,42.143,36.684V308.24c-12.192,0-22.52-8.126-25.853-19.247l36.448-0.209v40.45H423.26v-0.001
			l0.16,47.661h-56.001v-39.947H351.844z M260.528,219.17h-32.51v15.575h32.51v9.345h-24.203v15.575h24.203v11.891h-71.355v-71.354
			h23.27v11.7h15.575v-11.7h32.51V219.17z"/>
	</g>
</g>
<g>
	<g>
		<path d="M351.579,399.839v15.574h10.285l0.045,96.564l15.575-0.007l-0.045-96.557h46.247l-0.194,26.523
			c-6.618-2.756-11.286-9.287-11.286-16.89H396.63c0,16.23,11.478,29.824,26.742,33.106l-0.393,53.736l15.575,0.113l0.82-112.162
			H351.579z"/>
	</g>
</g>
</svg>